<svg xmlns="http://www.w3.org/2000/svg" xmlns:xlink="http://www.w3.org/1999/xlink" width="1200" zoomAndPan="magnify" viewBox="0 0 900 89.999999" height="120" preserveAspectRatio="xMidYMid meet" version="1.0"><defs><clipPath id="c7b43fbe31"><path d="M 22 34.460938 L 895 34.460938 L 895 71.210938 L 22 71.210938 Z M 22 34.460938 " clip-rule="nonzero"/></clipPath><clipPath id="a7475c354d"><path d="M 16 22.460938 L 889 22.460938 L 889 59.210938 L 16 59.210938 Z M 16 22.460938 " clip-rule="nonzero"/></clipPath></defs><g clip-path="url(#c7b43fbe31)"><path fill="#ff66c4" d="M 123.175781 42.859375 C 124.277344 42.148438 125.363281 40.835938 126.480469 40.800781 C 136.476562 40.480469 146.492188 40.304688 156.503906 40.269531 C 159.6875 40.269531 162.871094 41.066406 166.039062 40.925781 C 171 40.710938 175.945312 39.839844 180.925781 39.59375 C 185.851562 39.34375 190.957031 38.757812 195.652344 39.804688 C 197.785156 40.285156 199.261719 39.949219 201.078125 39.71875 C 201.679688 39.644531 202.355469 40.480469 203.015625 40.5 C 203.851562 40.535156 204.722656 40.214844 205.558594 39.964844 C 206.09375 39.804688 206.679688 39.113281 207.050781 39.238281 C 213.382812 41.246094 219.945312 38.351562 226.316406 40.25 C 227.59375 40.640625 229.230469 39.609375 230.691406 39.699219 C 232.734375 39.824219 234.746094 40.355469 237.144531 40.78125 C 237.074219 40.960938 237.324219 39.839844 237.589844 39.859375 C 242.359375 39.894531 247.105469 40.109375 251.871094 40.179688 C 258.082031 40.285156 264.289062 40.230469 270.476562 40.410156 C 278.285156 40.640625 286.09375 41.050781 293.902344 41.296875 C 295.714844 41.351562 297.546875 40.960938 299.363281 40.996094 C 300.25 41.011719 301.121094 41.757812 302.027344 41.828125 C 302.917969 41.902344 303.84375 41.476562 304.75 41.367188 C 306.40625 41.171875 308.183594 40.605469 309.710938 40.976562 C 314.160156 42.078125 318.515625 40.269531 322.75 40.765625 C 324.867188 41.011719 326.628906 40.765625 328.582031 40.585938 C 329.222656 40.535156 329.972656 42.132812 330.683594 42.148438 C 332.160156 42.148438 333.636719 41.597656 335.128906 41.28125 C 335.183594 40.90625 335.234375 40.535156 335.289062 40.160156 C 336 40.816406 336.710938 41.476562 337.53125 42.238281 C 337.972656 41.742188 338.507812 41.136719 339.167969 40.390625 C 340.109375 41.066406 341.015625 42.203125 342.011719 42.308594 C 342.867188 42.398438 343.824219 41.261719 344.894531 40.585938 C 347.011719 40.996094 349.214844 44.421875 351.847656 40.550781 C 352.308594 39.878906 355.246094 40.90625 356.933594 41.492188 C 357.929688 41.367188 358.960938 40.996094 359.90625 41.136719 C 363.210938 41.597656 366.34375 41.03125 369.617188 40.445312 C 374.222656 39.628906 379.042969 40.035156 383.753906 39.789062 C 385.535156 39.699219 387.277344 38.988281 389.039062 38.953125 C 390.601562 38.917969 392.167969 39.449219 393.804688 39.734375 C 394.25 39.378906 394.996094 38.296875 395.742188 38.296875 C 398.234375 38.261719 400.722656 38.8125 403.195312 38.757812 C 404.671875 38.722656 406.128906 37.585938 407.589844 37.621094 C 411.695312 37.730469 415.804688 38.242188 419.933594 38.4375 C 420.804688 38.472656 421.691406 37.710938 422.617188 37.550781 C 423.757812 37.355469 425.035156 37.089844 426.050781 37.445312 C 429.179688 38.5625 432.828125 38.8125 435.421875 37.816406 C 439.015625 36.414062 442.183594 37.996094 445.578125 37.515625 C 450.703125 36.789062 456.019531 37.410156 461.25 37.25 C 462.566406 37.214844 464.21875 35.632812 465.074219 36.078125 C 469.109375 38.121094 473.359375 36.734375 477.46875 37.320312 C 478.359375 37.445312 479.335938 36.558594 480.332031 36.363281 C 481.648438 36.09375 483.375 35.4375 484.28125 35.988281 C 487.535156 37.960938 490.683594 37.460938 493.777344 36.09375 C 496.605469 34.851562 499.0625 34.621094 501.179688 37.375 C 501.835938 36.558594 502.421875 35.863281 502.992188 35.171875 C 505.25 36.238281 507.03125 38.121094 509.660156 35.546875 C 510.570312 34.65625 513.414062 35.988281 515.351562 35.898438 C 519.035156 35.722656 522.699219 35.121094 526.378906 34.960938 C 528.480469 34.871094 531.234375 34.535156 532.589844 35.652344 C 535.699219 38.226562 538.957031 35.617188 541.890625 36.734375 C 545.589844 38.15625 549.289062 34.691406 553.148438 36.964844 C 554.234375 37.605469 556.386719 36.34375 558.074219 36.09375 C 559.25 35.917969 560.582031 35.632812 561.648438 36.007812 C 566.542969 37.746094 571.414062 35.742188 576.253906 36.167969 C 579.828125 36.484375 583.367188 37.214844 586.925781 37.765625 C 587.011719 37.765625 587.171875 37.976562 587.171875 37.976562 C 590.605469 34.390625 595.050781 40.179688 598.503906 36.769531 C 609.371094 38.011719 620.21875 36.023438 631.121094 36.769531 C 640.441406 37.410156 649.851562 36.769531 659.222656 36.679688 C 662.050781 36.644531 664.898438 36.273438 667.707031 36.433594 C 669.023438 36.503906 670.285156 37.445312 671.40625 37.90625 C 672.847656 37.515625 674.484375 36.679688 676.101562 36.699219 C 680.941406 36.734375 685.777344 37.390625 690.597656 37.285156 C 695.363281 37.179688 700.113281 36.132812 704.878906 36.09375 C 710.765625 36.042969 716.671875 36.804688 722.578125 36.789062 C 728.695312 36.789062 734.8125 36.09375 740.933594 36.058594 C 750.769531 36.007812 760.601562 36.328125 770.421875 36.328125 C 778.761719 36.328125 787.121094 35.972656 795.464844 36.007812 C 802.507812 36.042969 809.550781 36.378906 816.574219 36.664062 C 826.960938 37.054688 837.347656 37.78125 847.738281 37.871094 C 856.378906 37.941406 865.023438 37.179688 873.667969 36.949219 C 877.707031 36.839844 881.777344 37.019531 885.796875 37.390625 C 886.972656 37.5 888.039062 38.707031 889.160156 39.414062 C 889.105469 39.929688 889.035156 40.445312 888.980469 40.960938 C 885.550781 41.332031 882.097656 41.707031 878.238281 42.113281 C 878.949219 43.109375 879.664062 45.113281 880.585938 45.222656 C 884.605469 45.648438 883.34375 48.71875 883.84375 50.882812 C 883.984375 51.503906 883.753906 52.199219 883.789062 51.84375 C 887.007812 53.8125 889.65625 55.445312 892.433594 57.152344 C 892.433594 57.167969 892.679688 56.566406 893.019531 55.800781 C 896.753906 60.863281 889.800781 58.429688 889.675781 60.96875 C 890.371094 61.09375 891.0625 61.234375 891.863281 61.375 C 890.847656 62.15625 889.960938 62.851562 888.714844 63.808594 C 890.296875 64.039062 891.402344 64.199219 892.859375 64.429688 C 892.378906 65.140625 892.09375 65.851562 891.898438 65.816406 C 889.941406 65.511719 888.003906 66.914062 886.632812 66.863281 C 880.65625 66.648438 874.878906 68.230469 868.953125 68.085938 C 866.679688 68.035156 864.367188 68.496094 862.109375 68.371094 C 861.183594 68.320312 860.328125 67.269531 859.207031 66.523438 C 856.238281 68.796875 852.929688 69.3125 850.261719 66.96875 C 847.453125 67.589844 845.210938 68.496094 842.933594 68.515625 C 839.269531 68.550781 835.605469 67.820312 831.941406 67.75 C 827.460938 67.679688 822.976562 68.015625 818.496094 68.050781 C 816.808594 68.050781 815.117188 67.539062 813.425781 67.574219 C 812.269531 67.589844 811.132812 68.476562 809.996094 68.441406 C 806.6875 68.371094 803.378906 67.890625 800.089844 67.820312 C 797.898438 67.769531 795.710938 68.300781 793.523438 68.28125 C 792.332031 68.28125 791.160156 67.714844 789.71875 67.34375 C 788.632812 69.402344 771.824219 69.0625 769.886719 66.703125 C 768.25 67.378906 766.933594 68.265625 765.546875 68.371094 C 764 68.476562 762.398438 67.875 760.996094 67.609375 C 758.308594 67.695312 755.605469 67.890625 752.917969 67.839844 C 748.757812 67.734375 744.632812 65.621094 740.398438 67.714844 C 739.742188 68.050781 738.476562 68.050781 737.960938 67.625 C 736.628906 66.5625 735.738281 66.347656 734.40625 67.679688 C 734.101562 67.980469 732.375 66.828125 731.328125 66.367188 C 731.078125 66.703125 730.652344 67.289062 730.207031 67.875 C 730.152344 67.304688 730.101562 66.738281 729.957031 65.371094 C 728 66.257812 726.242188 67.148438 724.390625 67.769531 C 724 67.890625 723.304688 66.613281 722.683594 66.523438 C 720.425781 66.222656 718.128906 66.027344 715.855469 66.011719 C 711.425781 65.976562 706.980469 65.957031 702.550781 66.207031 C 700.789062 66.292969 699.011719 66.988281 697.320312 67.589844 C 696.113281 68.015625 696.21875 68.105469 694.917969 66.828125 C 694.617188 66.523438 693.445312 66.507812 693.355469 66.703125 C 691.328125 70.660156 688.730469 67.785156 686.363281 67.34375 C 685.492188 67.183594 684.25 66.417969 683.839844 66.757812 C 680.230469 69.667969 676.246094 68.230469 672.3125 68.195312 C 664.503906 68.125 656.714844 68.476562 648.90625 68.496094 C 639.996094 68.515625 631.085938 68.425781 622.191406 68.246094 C 620.859375 68.230469 619.5625 67.253906 618.210938 67.199219 C 616.128906 67.109375 614.011719 67.429688 611.914062 67.539062 C 611.253906 67.574219 610.597656 67.394531 609.9375 67.378906 C 608.285156 67.359375 606.628906 67.378906 604.65625 67.378906 C 604.90625 68.175781 603.464844 67.644531 603.25 67.625 C 602.894531 67.609375 602.539062 67.324219 602.203125 67.34375 C 601.257812 67.394531 600.316406 67.519531 599.390625 67.695312 C 598.824219 67.804688 598.023438 68.390625 597.753906 68.195312 C 594.730469 65.902344 590.710938 69.878906 587.867188 66.597656 C 587.707031 66.402344 586.976562 66.367188 586.835938 66.542969 C 584.042969 69.898438 581.269531 66.953125 578.457031 66.632812 C 577.515625 66.523438 576.5 67.34375 575.488281 67.484375 C 573.90625 67.714844 571.59375 68.425781 570.84375 67.679688 C 569.101562 65.9375 568.140625 66.738281 566.59375 67.644531 C 565.777344 68.125 564.476562 67.820312 563 67.890625 C 563.429688 67.183594 563.675781 66.738281 564.105469 66.027344 L 559.570312 66.027344 C 559.816406 66.367188 560.121094 66.757812 560.421875 67.148438 C 560.316406 67.414062 560.191406 67.695312 560.085938 67.964844 C 558.875 67.429688 557.648438 66.914062 556.367188 66.347656 C 555.65625 67.378906 555.675781 67.359375 554.089844 66.347656 C 553.71875 66.097656 552.953125 65.761719 552.863281 65.867188 C 550.160156 69.152344 546.28125 65.601562 543.898438 67.414062 C 543.3125 66.71875 542.867188 65.816406 542.496094 65.832031 C 538.261719 66.152344 533.992188 67.109375 529.8125 66.863281 C 527.109375 66.703125 524.40625 66.988281 521.738281 66.632812 C 521.097656 66.542969 520.546875 65.671875 519.765625 64.964844 C 518.375 66.683594 516.917969 67.980469 514.535156 65.921875 C 513.789062 65.265625 511.847656 65.957031 510.460938 66.046875 C 507.792969 66.1875 504.203125 67.464844 502.691406 66.222656 C 499.824219 63.878906 497.941406 66.808594 495.539062 66.257812 C 492.515625 65.585938 489.277344 65.761719 486.132812 65.832031 C 480.402344 65.9375 474.695312 66.328125 468.984375 66.417969 C 466.316406 66.453125 463.667969 65.867188 461 65.886719 C 458.652344 65.886719 456.304688 66.367188 453.957031 66.523438 C 452.585938 66.613281 450.933594 66.914062 449.882812 66.292969 C 448.636719 65.585938 447.890625 63.828125 447.074219 66.507812 C 446.574219 66.132812 446.078125 65.746094 445.277344 65.140625 C 444.652344 65.621094 443.746094 66.292969 442.714844 67.074219 C 440.261719 65.726562 437.824219 65.425781 434.710938 66.5625 C 432.1875 67.484375 428.949219 66.472656 426.03125 66.402344 C 423.613281 66.347656 421.195312 66.4375 418.777344 66.488281 C 409.402344 66.71875 400.011719 66.84375 390.636719 67.269531 C 384.714844 67.539062 378.8125 68.476562 372.886719 68.761719 C 368.191406 68.992188 363.480469 68.65625 358.785156 68.710938 C 357.664062 68.710938 356.5625 69.277344 354.78125 69.757812 C 353.304688 68.78125 351.347656 68.53125 348.46875 69.863281 C 345.746094 71.125 342.152344 70.554688 338.953125 70.679688 C 338.828125 70.679688 338.648438 69.578125 338.382812 68.566406 C 337.492188 69.507812 336.835938 70.199219 335.980469 71.089844 C 333.882812 67.253906 330.824219 69.96875 328.136719 69.828125 C 327.78125 69.808594 327.144531 70.679688 327.054688 70.609375 C 324.671875 68.796875 322.25 69.738281 319.636719 69.96875 C 316.828125 70.234375 313.925781 69.097656 311.027344 68.816406 C 310.226562 68.746094 309.320312 69.507812 308.003906 70.09375 C 308.003906 70.148438 307.828125 69.488281 307.472656 68.371094 C 306.722656 69.277344 306.15625 69.96875 305.605469 70.625 C 303.503906 68.125 303.34375 68.105469 300.640625 69.578125 C 300.285156 69.773438 299.839844 69.808594 299.414062 69.84375 C 298.0625 69.96875 296.691406 70.164062 295.324219 70.128906 C 292.351562 70.039062 289.382812 69.667969 286.429688 69.722656 C 283.65625 69.773438 280.882812 70.199219 277.945312 70.484375 C 277.945312 70.113281 277.945312 69.597656 277.945312 69.632812 C 276.238281 69.367188 274.691406 69.011719 273.109375 68.886719 C 271.8125 68.796875 270.496094 69.0625 269.195312 69.011719 C 265.035156 68.851562 260.835938 68.957031 256.746094 68.335938 C 253.101562 67.785156 248.992188 67.5 246.019531 68.390625 C 241.574219 69.722656 237.625 66.757812 233.5 68.496094 C 232.734375 68.816406 231.4375 67.644531 230.421875 67.734375 C 228.699219 67.890625 227.027344 68.515625 224.925781 69.0625 C 223.984375 68.566406 223.007812 65.050781 220.996094 68.515625 C 220.871094 68.726562 220.300781 68.851562 220.054688 68.761719 C 215.214844 67.074219 210.289062 68.867188 205.378906 68.371094 C 200.0625 67.839844 194.621094 68.476562 189.355469 67.714844 C 186.011719 67.234375 182.523438 68.957031 179.144531 66.648438 C 177.972656 65.851562 175.160156 67.910156 173.402344 67.484375 C 169.984375 66.667969 166.800781 67.519531 163.511719 67.644531 C 160.007812 67.785156 156.488281 67.058594 152.984375 66.792969 C 150.882812 66.632812 148.769531 66.597656 146.652344 66.597656 C 138.433594 66.648438 130.199219 66.933594 121.980469 66.738281 C 117.960938 66.632812 113.976562 65.40625 109.941406 65.085938 C 106.667969 64.820312 103.324219 65.316406 100.035156 65.195312 C 92.601562 64.890625 85.164062 64.609375 77.75 63.949219 C 69.601562 63.242188 61.492188 62.140625 53.363281 61.179688 C 48.222656 60.578125 43.03125 60.257812 37.996094 59.175781 C 33.425781 58.199219 28.960938 56.496094 24.605469 54.773438 C 23.785156 54.453125 22.257812 53.566406 22.738281 51.292969 C 23.449219 48.042969 21.988281 44.316406 25.15625 41.402344 C 25.03125 47.457031 30.277344 45.308594 33.175781 46.394531 C 36.074219 47.476562 39.6875 46.625 42.691406 47.066406 C 48.1875 47.882812 53.648438 47.5625 59.089844 48.027344 C 61.207031 48.203125 63.324219 48.34375 65.441406 48.578125 C 66.632812 48.71875 67.804688 49.003906 69.28125 49.285156 C 70.632812 46.234375 73.035156 49.054688 75.117188 48.96875 C 76.003906 48.929688 77.054688 48.949219 77.695312 48.488281 C 78.210938 48.113281 78.230469 47.066406 78.460938 46.304688 C 77.515625 46.179688 76.558594 46.089844 75.613281 45.929688 C 72.660156 45.488281 69.195312 47.03125 66.863281 44.15625 C 66.953125 43.695312 67.042969 43.234375 67.113281 42.769531 C 68.800781 43.054688 70.507812 43.339844 72.199219 43.605469 C 72.144531 43.515625 72.09375 43.429688 72.039062 43.320312 C 73.535156 43.25 75.046875 43.195312 76.539062 43.125 C 76.503906 43.285156 76.46875 43.445312 76.433594 43.585938 C 77.355469 43.214844 78.265625 42.539062 79.207031 42.503906 C 90.609375 42.078125 102.027344 41.757812 113.425781 41.386719 C 115.1875 41.332031 116.964844 40.835938 118.675781 41.050781 C 120.257812 41.261719 121.75 42.167969 123.28125 42.753906 C 122.160156 44.050781 121.039062 45.34375 119.742188 46.835938 C 121.574219 46.941406 123.601562 47.066406 126.019531 47.226562 C 125.949219 46.464844 125.878906 45.628906 125.804688 44.792969 C 125.21875 45.113281 124.632812 45.433594 123.902344 45.824219 C 123.671875 44.777344 123.457031 43.765625 123.226562 42.769531 Z M 701.785156 43.941406 C 701.039062 42.699219 701.394531 40.855469 698.53125 41.332031 C 695.132812 41.917969 691.503906 40.960938 687.984375 41.101562 C 686.578125 41.15625 685.226562 42.328125 683.839844 42.984375 C 683.929688 43.179688 684.035156 43.355469 684.125 43.550781 L 685.777344 43.550781 C 685.601562 44.15625 685.441406 44.6875 685.296875 45.167969 C 687.628906 45.292969 689.90625 45.398438 692.304688 45.523438 C 691.808594 44.757812 691.417969 44.191406 691.023438 43.605469 L 691.738281 42.964844 C 692.554688 43.835938 693.390625 44.722656 694.191406 45.574219 C 695.953125 45.113281 697.75 43.179688 700.042969 45.167969 C 700.148438 45.257812 701.164062 44.316406 701.75 43.871094 C 704.648438 42.078125 706.980469 45.203125 710.039062 44.792969 C 709.59375 43.269531 708.5625 41.191406 708.082031 41.296875 C 705.910156 41.828125 703.882812 43 701.804688 43.941406 Z M 220.925781 45.84375 C 218.753906 42.273438 216.78125 42.0625 214.894531 44.671875 C 212.53125 44.296875 210.484375 44.015625 208.457031 43.625 C 205.34375 43.039062 202.234375 43.195312 199.191406 43.78125 C 198.300781 43.960938 197.625 45.222656 197.058594 45.769531 C 201.414062 46.039062 205.363281 46.285156 209.507812 46.550781 C 209.558594 47.15625 209.613281 47.992188 209.648438 48.382812 C 212.371094 47.636719 214.894531 46.730469 217.511719 46.320312 C 218.363281 46.199219 219.414062 47.386719 220.855469 48.292969 C 220.855469 47.210938 220.855469 46.480469 220.855469 45.769531 C 223.308594 46.199219 225.761719 46.785156 228.234375 46.980469 C 229.515625 47.085938 230.777344 48.753906 232.433594 46.695312 C 233.019531 45.949219 236.238281 47.246094 238.230469 47.707031 C 238.855469 47.847656 239.40625 48.34375 239.992188 48.683594 C 240.046875 47.992188 240.097656 47.296875 240.167969 46.089844 C 241.929688 46.871094 243.53125 47.5625 245.398438 48.398438 L 245.398438 44.671875 C 244.171875 44.757812 242.945312 44.953125 241.734375 44.902344 C 240.953125 44.867188 240.1875 44.386719 239.386719 44.261719 C 238.65625 44.15625 237.859375 44.402344 237.164062 44.261719 C 234.761719 43.710938 231.757812 47.546875 230.136719 43.355469 C 229 43.78125 227.578125 44.707031 227.222656 44.402344 C 224.324219 41.917969 222.757812 44.332031 220.925781 45.878906 Z M 375.984375 43.214844 C 375.714844 43.5 375.46875 44.03125 375.164062 44.050781 C 369.492188 44.546875 363.585938 41.8125 358.125 45.34375 C 357.984375 45.433594 357.558594 44.9375 357.253906 44.902344 C 355.351562 44.652344 353.429688 44.246094 351.527344 44.28125 C 349.429688 44.332031 347.328125 45.007812 345.230469 45.027344 C 341.941406 45.0625 338.652344 44.722656 335.359375 44.652344 C 333.386719 44.597656 331.394531 44.742188 329.417969 44.757812 C 327.675781 44.757812 325.914062 44.636719 324.191406 44.757812 C 323.355469 44.832031 322.464844 45.257812 321.773438 45.769531 C 321.523438 45.949219 321.59375 47.191406 321.84375 47.316406 C 324.082031 48.433594 326.359375 49.480469 328.707031 50.335938 C 329.082031 50.476562 329.792969 49.554688 330.414062 49.214844 C 331.199219 48.773438 332.300781 47.867188 332.78125 48.113281 C 334.648438 49.039062 335.023438 49.125 335.308594 48.59375 C 337.210938 49.164062 339.042969 50.386719 340.410156 49.996094 C 343.433594 49.125 346.351562 49.269531 349.394531 49.304688 C 356.046875 49.375 362.695312 49.089844 369.347656 48.914062 C 369.742188 48.914062 370.097656 48.398438 370.503906 48.292969 C 371.554688 47.992188 372.726562 47.953125 373.671875 47.492188 C 374.488281 47.085938 375.273438 46.320312 375.734375 45.523438 C 376.109375 44.882812 375.949219 43.960938 376.019531 43.160156 C 376.480469 45.007812 376.945312 46.855469 377.546875 49.269531 C 379.949219 48.578125 382.902344 47.742188 385.871094 46.890625 C 385.765625 47.136719 385.570312 47.617188 385.179688 48.539062 C 389.519531 46.464844 393.574219 43.179688 397.789062 48.1875 C 398.394531 47.476562 399.050781 46.695312 399.761719 45.859375 C 400.207031 46.535156 400.5625 47.050781 401.1875 47.992188 C 403.089844 43.179688 405.117188 47.121094 407.144531 47.386719 C 407.089844 46.765625 407.039062 46.125 406.984375 45.699219 C 409.3125 45.328125 411.449219 44.972656 413.601562 44.617188 C 413.6875 44.210938 413.777344 43.800781 413.867188 43.410156 C 413.085938 43.039062 412.285156 42.308594 411.519531 42.363281 C 408.390625 42.539062 405.3125 43.039062 402.21875 43.570312 C 397.84375 44.332031 393.183594 43.570312 388.648438 43.480469 C 384.429688 43.390625 380.214844 43.285156 376.019531 43.195312 Z M 424.21875 44.671875 C 425.339844 44.832031 426.175781 45.0625 427.027344 45.0625 C 428.46875 45.0625 429.910156 44.8125 431.332031 44.867188 C 435.085938 44.972656 438.839844 45.257812 442.609375 45.34375 C 445.0625 45.398438 447.535156 45.113281 449.992188 45.167969 C 453.136719 45.257812 456.570312 46.625 458.136719 43.089844 C 459.433594 43.890625 460.554688 44.582031 461.65625 45.257812 C 461.851562 44.953125 462.03125 44.652344 462.226562 44.351562 C 461.816406 44.066406 461.410156 43.765625 460.5 43.125 C 462.796875 43.445312 465.019531 43.089844 466.015625 44.03125 C 468.148438 46.054688 469.234375 45.46875 470.285156 44.28125 C 472.0625 44.671875 473.859375 45.042969 475.957031 45.503906 C 475.546875 44.441406 475.335938 43.890625 474.800781 42.46875 C 476.3125 43.585938 476.972656 44.421875 477.71875 44.527344 C 478.484375 44.617188 479.335938 43.976562 480.101562 43.695312 C 480.511719 44.15625 481.097656 44.8125 481.523438 45.292969 C 486.042969 42.683594 490.3125 44.136719 494.667969 44.902344 C 496.019531 42.183594 498.492188 42.859375 500.875 43.144531 C 503.792969 43.480469 506.726562 44.015625 509.660156 44.015625 C 511.53125 44.015625 513.609375 44.015625 515.28125 42.683594 C 515.511719 42.488281 516.3125 42.648438 516.582031 42.894531 C 518.039062 44.296875 522.183594 44.9375 523.871094 44.457031 C 525.582031 43.976562 527.464844 44.050781 529.261719 44.03125 C 529.992188 44.03125 530.71875 44.617188 531.46875 44.671875 C 535.574219 44.953125 539.703125 45.523438 543.777344 45.273438 C 549.003906 44.9375 554.285156 46.570312 559.550781 44.261719 C 561.828125 43.269531 564.886719 44.050781 567.574219 44.101562 C 568.054688 44.101562 568.535156 44.582031 569.015625 44.832031 C 569.851562 45.238281 570.722656 46.054688 571.503906 45.964844 C 575.648438 45.523438 574.101562 42.699219 573.886719 40.425781 C 570.703125 40.425781 567.734375 40.375 564.761719 40.425781 C 560.761719 40.515625 556.757812 40.890625 552.773438 40.746094 C 548.132812 40.570312 543.457031 39.34375 538.882812 39.71875 C 534.1875 40.089844 529.367188 38.085938 524.816406 40.425781 C 519.550781 37.621094 514.039062 42.148438 508.558594 39.71875 C 506.316406 38.722656 503.277344 39.398438 500.609375 39.503906 C 497.957031 39.609375 495.328125 40.160156 492.695312 40.144531 C 486.859375 40.089844 481.042969 39.609375 475.210938 39.664062 C 470.890625 39.71875 466.585938 40.640625 462.261719 40.621094 C 457.355469 40.621094 452.445312 39.609375 447.554688 39.699219 C 440.617188 39.824219 433.699219 40.515625 426.761719 41.011719 C 422.761719 41.316406 418.757812 41.722656 414.882812 42.078125 C 414.667969 43.871094 414.507812 45.167969 414.347656 46.375 C 416.820312 48.683594 419.363281 40.179688 421.726562 46.941406 C 422.8125 45.949219 423.703125 45.132812 424.199219 44.671875 Z M 608.695312 43.410156 C 608.605469 42.964844 608.5 42.523438 608.410156 42.0625 C 598.894531 41.652344 589.378906 41.246094 579.828125 40.835938 C 579.898438 41.6875 579.933594 42.203125 579.96875 42.71875 C 579.0625 42.292969 578.171875 41.867188 576.855469 41.246094 L 576.855469 45.238281 C 577.816406 45.027344 578.761719 44.671875 579.71875 44.617188 C 580.664062 44.546875 581.660156 44.652344 582.585938 44.882812 C 583.6875 45.167969 584.71875 45.824219 585.839844 46.003906 C 586.585938 46.109375 587.421875 45.453125 588.203125 45.46875 C 592.988281 45.628906 597.773438 46.160156 602.539062 45.949219 C 604.621094 45.859375 606.628906 44.296875 608.675781 43.410156 Z M 301.050781 48.097656 C 313.535156 48.96875 317.308594 48.613281 320.792969 46.304688 C 318.179688 44.402344 308.644531 44.15625 306.636719 46.019531 C 305.015625 45.257812 303.382812 44.476562 301.265625 43.480469 C 301.175781 45.417969 301.121094 46.746094 301.050781 48.097656 Z M 102.808594 45.984375 C 102.71875 46.125 102.632812 46.285156 102.558594 46.429688 L 108.449219 48.859375 C 108.410156 48.613281 108.375 48.382812 108.339844 48.132812 C 110.386719 47.707031 112.429688 47.296875 114.460938 46.871094 C 114.460938 46.570312 114.460938 46.285156 114.441406 45.984375 Z M 270.816406 47.386719 C 269.625 46.304688 268.894531 45.398438 267.953125 44.902344 C 267.222656 44.511719 265.871094 44.191406 265.445312 44.5625 C 264.820312 45.113281 264.785156 46.320312 264.519531 47.246094 C 265.371094 47.457031 266.226562 47.8125 267.097656 47.832031 C 268.148438 47.847656 269.195312 47.601562 270.816406 47.386719 Z M 283.851562 49.710938 C 285.578125 48.453125 286.894531 47.476562 288.902344 46.003906 C 286.714844 45.71875 285.042969 45.503906 283.371094 45.273438 C 283.53125 46.765625 283.710938 48.238281 283.871094 49.710938 Z M 283.851562 49.710938 " fill-opacity="1" fill-rule="nonzero"/></g><path fill="#ff66c4" d="M 59.003906 48.0625 C 58.859375 43.625 54.984375 45.34375 53.078125 45.0625 C 48.4375 44.386719 43.5625 46.855469 38.867188 44.316406 C 38.28125 43.996094 37.160156 44.847656 36.324219 44.757812 C 35.328125 44.671875 34.351562 44.15625 33.371094 43.820312 L 33.460938 42.824219 C 38.546875 42.824219 43.671875 42.503906 48.722656 42.914062 C 54.34375 43.355469 60.335938 41.191406 65.636719 44.351562 C 65.601562 44.6875 65.566406 45.027344 65.53125 45.378906 C 63.910156 45.238281 62.292969 45.097656 60.246094 44.917969 C 59.925781 45.71875 59.445312 46.890625 58.984375 48.0625 Z M 59.003906 48.0625 " fill-opacity="1" fill-rule="nonzero"/><g clip-path="url(#a7475c354d)"><path fill="#ef94e9" d="M 117.261719 30.859375 C 118.363281 30.148438 119.449219 28.835938 120.570312 28.800781 C 130.566406 28.480469 140.578125 28.304688 150.59375 28.269531 C 153.777344 28.269531 156.960938 29.066406 160.125 28.925781 C 165.085938 28.710938 170.03125 27.839844 175.011719 27.59375 C 179.9375 27.34375 185.042969 26.757812 189.738281 27.804688 C 191.871094 28.285156 193.347656 27.949219 195.164062 27.71875 C 195.769531 27.644531 196.445312 28.480469 197.101562 28.5 C 197.9375 28.535156 198.808594 28.214844 199.644531 27.964844 C 200.179688 27.804688 200.765625 27.113281 201.140625 27.238281 C 207.472656 29.246094 214.035156 26.351562 220.402344 28.25 C 221.683594 28.640625 223.320312 27.609375 224.777344 27.699219 C 226.824219 27.824219 228.832031 28.355469 231.234375 28.78125 C 231.160156 28.960938 231.410156 27.839844 231.679688 27.859375 C 236.445312 27.894531 241.191406 28.109375 245.960938 28.179688 C 252.167969 28.285156 258.375 28.230469 264.5625 28.410156 C 272.371094 28.640625 280.179688 29.050781 287.988281 29.296875 C 289.800781 29.351562 291.632812 28.960938 293.449219 28.996094 C 294.335938 29.011719 295.210938 29.757812 296.117188 29.828125 C 297.003906 29.902344 297.929688 29.476562 298.835938 29.367188 C 300.492188 29.171875 302.269531 28.605469 303.800781 28.976562 C 308.246094 30.078125 312.605469 28.269531 316.835938 28.765625 C 318.953125 29.011719 320.714844 28.765625 322.671875 28.585938 C 323.3125 28.535156 324.058594 30.132812 324.769531 30.148438 C 326.246094 30.148438 327.722656 29.597656 329.214844 29.28125 C 329.269531 28.90625 329.324219 28.535156 329.375 28.160156 C 330.085938 28.816406 330.796875 29.476562 331.617188 30.238281 C 332.0625 29.742188 332.59375 29.136719 333.253906 28.390625 C 334.195312 29.066406 335.101562 30.203125 336.097656 30.308594 C 336.953125 30.398438 337.914062 29.261719 338.980469 28.585938 C 341.097656 28.996094 343.300781 32.421875 345.933594 28.550781 C 346.398438 27.878906 349.332031 28.90625 351.019531 29.492188 C 352.015625 29.367188 353.050781 28.996094 353.992188 29.136719 C 357.300781 29.597656 360.429688 29.03125 363.703125 28.445312 C 368.308594 27.628906 373.128906 28.035156 377.84375 27.789062 C 379.621094 27.699219 381.363281 26.988281 383.125 26.953125 C 384.691406 26.917969 386.253906 27.449219 387.890625 27.734375 C 388.335938 27.378906 389.082031 26.296875 389.832031 26.296875 C 392.320312 26.261719 394.808594 26.8125 397.28125 26.757812 C 398.757812 26.722656 400.21875 25.585938 401.675781 25.621094 C 405.785156 25.730469 409.894531 26.242188 414.019531 26.4375 C 414.890625 26.472656 415.78125 25.710938 416.703125 25.550781 C 417.84375 25.355469 419.125 25.089844 420.136719 25.445312 C 423.269531 26.5625 426.914062 26.8125 429.511719 25.816406 C 433.101562 24.414062 436.269531 25.996094 439.667969 25.515625 C 444.789062 24.789062 450.105469 25.410156 455.335938 25.25 C 456.652344 25.214844 458.304688 23.632812 459.160156 24.078125 C 463.195312 26.121094 467.449219 24.734375 471.554688 25.320312 C 472.445312 25.445312 473.425781 24.558594 474.421875 24.363281 C 475.734375 24.09375 477.460938 23.4375 478.367188 23.988281 C 481.625 25.960938 484.769531 25.460938 487.867188 24.09375 C 490.695312 22.851562 493.148438 22.621094 495.265625 25.375 C 495.921875 24.558594 496.511719 23.863281 497.078125 23.171875 C 499.339844 24.238281 501.117188 26.121094 503.75 23.546875 C 504.65625 22.65625 507.5 23.988281 509.441406 23.898438 C 513.121094 23.722656 516.785156 23.121094 520.46875 22.960938 C 522.566406 22.871094 525.324219 22.535156 526.675781 23.652344 C 529.789062 26.226562 533.042969 23.617188 535.976562 24.734375 C 539.675781 26.15625 543.375 22.691406 547.234375 24.964844 C 548.320312 25.605469 550.472656 24.34375 552.164062 24.09375 C 553.335938 23.917969 554.671875 23.632812 555.738281 24.007812 C 560.628906 25.746094 565.5 23.742188 570.339844 24.167969 C 573.914062 24.484375 577.453125 25.214844 581.011719 25.765625 C 581.101562 25.765625 581.261719 25.976562 581.261719 25.976562 C 584.691406 22.390625 589.140625 28.179688 592.589844 24.769531 C 603.457031 26.011719 614.304688 24.023438 625.207031 24.769531 C 634.527344 25.410156 643.9375 24.769531 653.3125 24.679688 C 656.136719 24.644531 658.984375 24.273438 661.792969 24.433594 C 663.109375 24.503906 664.375 25.445312 665.492188 25.90625 C 666.933594 25.515625 668.570312 24.679688 670.1875 24.699219 C 675.027344 24.734375 679.863281 25.390625 684.683594 25.285156 C 689.453125 25.179688 694.199219 24.132812 698.96875 24.09375 C 704.855469 24.042969 710.757812 24.804688 716.664062 24.789062 C 722.78125 24.789062 728.902344 24.09375 735.019531 24.058594 C 744.855469 24.007812 754.691406 24.328125 764.507812 24.328125 C 772.851562 24.328125 781.210938 23.972656 789.550781 24.007812 C 796.59375 24.042969 803.636719 24.378906 810.664062 24.664062 C 821.050781 25.054688 831.4375 25.78125 841.824219 25.871094 C 850.46875 25.941406 859.113281 25.179688 867.753906 24.949219 C 871.792969 24.839844 875.867188 25.019531 879.886719 25.390625 C 881.058594 25.5 882.125 26.707031 883.246094 27.414062 C 883.195312 27.929688 883.121094 28.445312 883.070312 28.960938 C 879.636719 29.332031 876.1875 29.707031 872.328125 30.113281 C 873.039062 31.109375 873.75 33.113281 874.675781 33.222656 C 878.695312 33.648438 877.429688 36.71875 877.929688 38.882812 C 878.070312 39.503906 877.839844 40.199219 877.875 39.84375 C 881.09375 41.8125 883.746094 43.445312 886.519531 45.152344 C 886.519531 45.167969 886.769531 44.566406 887.105469 43.800781 C 890.839844 48.863281 883.886719 46.429688 883.761719 48.96875 C 884.457031 49.09375 885.148438 49.234375 885.949219 49.375 C 884.9375 50.15625 884.046875 50.851562 882.800781 51.808594 C 884.386719 52.039062 885.488281 52.199219 886.945312 52.429688 C 886.464844 53.140625 886.179688 53.851562 885.984375 53.816406 C 884.03125 53.511719 882.089844 54.914062 880.722656 54.863281 C 874.746094 54.648438 868.964844 56.230469 863.042969 56.085938 C 860.765625 56.035156 858.453125 56.496094 856.195312 56.371094 C 855.269531 56.320312 854.414062 55.269531 853.296875 54.523438 C 850.324219 56.796875 847.015625 57.3125 844.347656 54.96875 C 841.539062 55.589844 839.296875 56.496094 837.019531 56.515625 C 833.355469 56.550781 829.695312 55.820312 826.03125 55.75 C 821.546875 55.679688 817.066406 56.015625 812.582031 56.050781 C 810.894531 56.050781 809.203125 55.539062 807.515625 55.574219 C 806.359375 55.589844 805.21875 56.476562 804.082031 56.441406 C 800.773438 56.371094 797.464844 55.890625 794.175781 55.820312 C 791.988281 55.769531 789.800781 56.300781 787.613281 56.28125 C 786.421875 56.28125 785.246094 55.714844 783.804688 55.34375 C 782.722656 57.402344 765.914062 57.0625 763.972656 54.703125 C 762.339844 55.378906 761.023438 56.265625 759.632812 56.371094 C 758.085938 56.476562 756.488281 55.875 755.082031 55.609375 C 752.394531 55.695312 749.691406 55.890625 747.007812 55.839844 C 742.84375 55.734375 738.71875 53.621094 734.484375 55.714844 C 733.828125 56.050781 732.566406 56.050781 732.046875 55.625 C 730.714844 54.5625 729.824219 54.347656 728.492188 55.679688 C 728.1875 55.980469 726.464844 54.828125 725.414062 54.367188 C 725.164062 54.703125 724.738281 55.289062 724.292969 55.875 C 724.242188 55.304688 724.1875 54.738281 724.046875 53.371094 C 722.089844 54.257812 720.328125 55.148438 718.476562 55.769531 C 718.085938 55.890625 717.394531 54.613281 716.769531 54.523438 C 714.511719 54.222656 712.21875 54.027344 709.941406 54.011719 C 705.511719 53.976562 701.066406 53.957031 696.636719 54.207031 C 694.875 54.292969 693.097656 54.988281 691.40625 55.589844 C 690.199219 56.015625 690.304688 56.105469 689.007812 54.828125 C 688.703125 54.523438 687.53125 54.507812 687.441406 54.703125 C 685.414062 58.660156 682.816406 55.785156 680.453125 55.34375 C 679.582031 55.183594 678.335938 54.417969 677.925781 54.757812 C 674.316406 57.667969 670.332031 56.230469 666.402344 56.195312 C 658.59375 56.125 650.800781 56.476562 642.996094 56.496094 C 634.082031 56.515625 625.171875 56.425781 616.28125 56.246094 C 614.945312 56.230469 613.648438 55.253906 612.296875 55.199219 C 610.214844 55.109375 608.097656 55.429688 606 55.539062 C 605.339844 55.574219 604.683594 55.394531 604.027344 55.378906 C 602.371094 55.359375 600.71875 55.378906 598.742188 55.378906 C 598.992188 56.175781 597.550781 55.644531 597.339844 55.625 C 596.980469 55.609375 596.625 55.324219 596.289062 55.34375 C 595.347656 55.394531 594.402344 55.519531 593.480469 55.695312 C 592.910156 55.804688 592.109375 56.390625 591.84375 56.195312 C 588.820312 53.902344 584.800781 57.878906 581.953125 54.597656 C 581.792969 54.402344 581.0625 54.367188 580.921875 54.542969 C 578.128906 57.898438 575.355469 54.953125 572.542969 54.632812 C 571.601562 54.523438 570.589844 55.34375 569.574219 55.484375 C 567.992188 55.714844 565.679688 56.425781 564.933594 55.679688 C 563.1875 53.9375 562.230469 54.738281 560.679688 55.644531 C 559.863281 56.125 558.566406 55.820312 557.089844 55.890625 C 557.515625 55.183594 557.765625 54.738281 558.191406 54.027344 L 553.65625 54.027344 C 553.90625 54.367188 554.207031 54.757812 554.507812 55.148438 C 554.402344 55.414062 554.277344 55.695312 554.171875 55.964844 C 552.960938 55.429688 551.734375 54.914062 550.453125 54.347656 C 549.742188 55.378906 549.761719 55.359375 548.179688 54.347656 C 547.804688 54.097656 547.039062 53.761719 546.949219 53.867188 C 544.246094 57.152344 540.371094 53.601562 537.988281 55.414062 C 537.398438 54.71875 536.953125 53.816406 536.582031 53.832031 C 532.347656 54.152344 528.078125 55.109375 523.898438 54.863281 C 521.195312 54.703125 518.492188 54.988281 515.824219 54.632812 C 515.183594 54.542969 514.632812 53.671875 513.851562 52.964844 C 512.464844 54.683594 511.003906 55.980469 508.621094 53.921875 C 507.875 53.265625 505.9375 53.957031 504.550781 54.046875 C 501.882812 54.1875 498.289062 55.464844 496.777344 54.222656 C 493.914062 51.878906 492.027344 54.808594 489.625 54.257812 C 486.601562 53.585938 483.367188 53.761719 480.21875 53.832031 C 474.492188 53.9375 468.78125 54.328125 463.074219 54.417969 C 460.40625 54.453125 457.753906 53.867188 455.085938 53.886719 C 452.738281 53.886719 450.390625 54.367188 448.042969 54.523438 C 446.671875 54.613281 445.019531 54.914062 443.96875 54.292969 C 442.726562 53.585938 441.976562 51.828125 441.160156 54.507812 C 440.660156 54.132812 440.164062 53.746094 439.363281 53.140625 C 438.742188 53.621094 437.835938 54.292969 436.800781 55.074219 C 434.347656 53.726562 431.910156 53.425781 428.796875 54.5625 C 426.273438 55.484375 423.035156 54.472656 420.121094 54.402344 C 417.699219 54.347656 415.28125 54.4375 412.863281 54.488281 C 403.488281 54.71875 394.097656 54.84375 384.726562 55.269531 C 378.800781 55.539062 372.898438 56.476562 366.976562 56.761719 C 362.28125 56.992188 357.566406 56.65625 352.871094 56.710938 C 351.75 56.710938 350.648438 57.277344 348.867188 57.757812 C 347.394531 56.78125 345.4375 56.53125 342.554688 57.863281 C 339.832031 59.125 336.242188 58.554688 333.039062 58.679688 C 332.914062 58.679688 332.738281 57.578125 332.46875 56.566406 C 331.582031 57.507812 330.921875 58.199219 330.070312 59.089844 C 327.96875 55.253906 324.910156 57.96875 322.226562 57.828125 C 321.871094 57.808594 321.230469 58.679688 321.140625 58.609375 C 318.757812 56.796875 316.339844 57.738281 313.722656 57.96875 C 310.914062 58.234375 308.015625 57.097656 305.117188 56.816406 C 304.316406 56.746094 303.40625 57.507812 302.09375 58.09375 C 302.09375 58.148438 301.914062 57.488281 301.558594 56.371094 C 300.8125 57.277344 300.242188 57.96875 299.691406 58.625 C 297.59375 56.125 297.433594 56.105469 294.730469 57.578125 C 294.371094 57.773438 293.929688 57.808594 293.5 57.84375 C 292.148438 57.96875 290.78125 58.164062 289.410156 58.128906 C 286.441406 58.039062 283.46875 57.667969 280.519531 57.722656 C 277.742188 57.773438 274.96875 58.199219 272.035156 58.484375 C 272.035156 58.113281 272.035156 57.597656 272.035156 57.632812 C 270.328125 57.367188 268.777344 57.011719 267.195312 56.886719 C 265.898438 56.796875 264.582031 57.0625 263.28125 57.011719 C 259.121094 56.851562 254.921875 56.957031 250.832031 56.335938 C 247.1875 55.785156 243.078125 55.5 240.109375 56.390625 C 235.660156 57.722656 231.714844 54.757812 227.585938 56.496094 C 226.820312 56.816406 225.523438 55.644531 224.507812 55.734375 C 222.785156 55.890625 221.113281 56.515625 219.015625 57.0625 C 218.070312 56.566406 217.09375 53.050781 215.082031 56.515625 C 214.957031 56.726562 214.390625 56.851562 214.140625 56.761719 C 209.304688 55.074219 204.375 56.867188 199.46875 56.371094 C 194.148438 55.839844 188.707031 56.476562 183.441406 55.714844 C 180.097656 55.234375 176.613281 56.957031 173.234375 54.648438 C 172.058594 53.851562 169.25 55.910156 167.488281 55.484375 C 164.074219 54.667969 160.890625 55.519531 157.597656 55.644531 C 154.09375 55.785156 150.574219 55.058594 147.070312 54.792969 C 144.972656 54.632812 142.855469 54.597656 140.738281 54.597656 C 132.519531 54.648438 124.285156 54.933594 116.070312 54.738281 C 112.050781 54.632812 108.066406 53.40625 104.027344 53.085938 C 100.753906 52.820312 97.410156 53.316406 94.121094 53.195312 C 86.6875 52.890625 79.253906 52.609375 71.835938 51.949219 C 63.691406 51.242188 55.578125 50.140625 47.449219 49.179688 C 42.3125 48.578125 37.117188 48.257812 32.082031 47.175781 C 27.511719 46.199219 23.046875 44.496094 18.691406 42.773438 C 17.871094 42.453125 16.34375 41.566406 16.824219 39.292969 C 17.535156 36.042969 16.078125 32.316406 19.242188 29.402344 C 19.117188 35.457031 24.363281 33.308594 27.265625 34.394531 C 30.164062 35.476562 33.773438 34.625 36.78125 35.066406 C 42.273438 35.882812 47.734375 35.5625 53.179688 36.027344 C 55.292969 36.203125 57.410156 36.34375 59.527344 36.578125 C 60.71875 36.71875 61.894531 37.003906 63.371094 37.285156 C 64.722656 34.234375 67.121094 37.054688 69.203125 36.96875 C 70.09375 36.929688 71.140625 36.949219 71.78125 36.488281 C 72.296875 36.113281 72.316406 35.066406 72.546875 34.304688 C 71.605469 34.179688 70.644531 34.089844 69.703125 33.929688 C 66.75 33.488281 63.28125 35.03125 60.949219 32.15625 C 61.039062 31.695312 61.128906 31.234375 61.199219 30.769531 C 62.890625 31.054688 64.597656 31.339844 66.285156 31.605469 C 66.234375 31.515625 66.179688 31.429688 66.125 31.320312 C 67.621094 31.25 69.132812 31.195312 70.625 31.125 C 70.589844 31.285156 70.554688 31.445312 70.519531 31.585938 C 71.445312 31.214844 72.351562 30.539062 73.292969 30.503906 C 84.695312 30.078125 96.113281 29.757812 107.515625 29.386719 C 109.273438 29.332031 111.054688 28.835938 112.761719 29.050781 C 114.34375 29.261719 115.835938 30.167969 117.367188 30.753906 C 116.246094 32.050781 115.125 33.34375 113.828125 34.835938 C 115.660156 34.941406 117.6875 35.066406 120.105469 35.226562 C 120.035156 34.464844 119.964844 33.628906 119.894531 32.792969 C 119.304688 33.113281 118.71875 33.433594 117.988281 33.824219 C 117.757812 32.777344 117.546875 31.765625 117.3125 30.769531 Z M 695.871094 31.941406 C 695.125 30.699219 695.480469 28.855469 692.617188 29.332031 C 689.21875 29.917969 685.59375 28.960938 682.070312 29.101562 C 680.664062 29.15625 679.3125 30.328125 677.925781 30.984375 C 678.015625 31.179688 678.121094 31.355469 678.210938 31.550781 L 679.863281 31.550781 C 679.6875 32.15625 679.527344 32.6875 679.386719 33.167969 C 681.714844 33.292969 683.992188 33.398438 686.394531 33.523438 C 685.894531 32.757812 685.503906 32.191406 685.113281 31.605469 L 685.824219 30.964844 C 686.640625 31.835938 687.476562 32.722656 688.277344 33.574219 C 690.039062 33.113281 691.835938 31.179688 694.128906 33.167969 C 694.234375 33.257812 695.25 32.316406 695.835938 31.871094 C 698.734375 30.078125 701.066406 33.203125 704.125 32.792969 C 703.679688 31.269531 702.648438 29.191406 702.167969 29.296875 C 700 29.828125 697.972656 31 695.890625 31.941406 Z M 215.011719 33.84375 C 212.84375 30.273438 210.867188 30.0625 208.984375 32.671875 C 206.617188 32.296875 204.570312 32.015625 202.542969 31.625 C 199.433594 31.039062 196.320312 31.195312 193.277344 31.78125 C 192.390625 31.960938 191.714844 33.222656 191.144531 33.769531 C 195.5 34.039062 199.449219 34.285156 203.59375 34.550781 C 203.648438 35.15625 203.699219 35.992188 203.734375 36.382812 C 206.457031 35.636719 208.984375 34.730469 211.597656 34.320312 C 212.453125 34.199219 213.5 35.386719 214.941406 36.292969 C 214.941406 35.210938 214.941406 34.480469 214.941406 33.769531 C 217.394531 34.199219 219.851562 34.785156 222.324219 34.980469 C 223.601562 35.085938 224.867188 36.753906 226.519531 34.695312 C 227.105469 33.949219 230.324219 35.246094 232.316406 35.707031 C 232.941406 35.847656 233.492188 36.34375 234.078125 36.683594 C 234.132812 35.992188 234.1875 35.296875 234.257812 34.089844 C 236.019531 34.871094 237.617188 35.5625 239.484375 36.398438 L 239.484375 32.671875 C 238.257812 32.757812 237.03125 32.953125 235.820312 32.902344 C 235.039062 32.867188 234.273438 32.386719 233.472656 32.261719 C 232.746094 32.15625 231.945312 32.40625 231.25 32.261719 C 228.851562 31.710938 225.84375 35.546875 224.226562 31.355469 C 223.085938 31.78125 221.664062 32.707031 221.308594 32.40625 C 218.410156 29.917969 216.84375 32.332031 215.011719 33.878906 Z M 370.070312 31.214844 C 369.804688 31.5 369.554688 32.03125 369.25 32.050781 C 363.578125 32.546875 357.671875 29.8125 352.214844 33.34375 C 352.070312 33.433594 351.644531 32.9375 351.339844 32.902344 C 349.4375 32.652344 347.515625 32.246094 345.613281 32.28125 C 343.515625 32.332031 341.417969 33.007812 339.316406 33.027344 C 336.027344 33.0625 332.738281 32.722656 329.445312 32.652344 C 327.472656 32.597656 325.480469 32.742188 323.507812 32.757812 C 321.761719 32.757812 320.003906 32.636719 318.277344 32.757812 C 317.441406 32.832031 316.550781 33.257812 315.859375 33.769531 C 315.609375 33.949219 315.679688 35.191406 315.929688 35.316406 C 318.171875 36.433594 320.449219 37.480469 322.796875 38.335938 C 323.167969 38.476562 323.878906 37.554688 324.503906 37.214844 C 325.285156 36.773438 326.386719 35.867188 326.867188 36.113281 C 328.734375 37.039062 329.109375 37.125 329.394531 36.59375 C 331.296875 37.164062 333.128906 38.386719 334.5 37.996094 C 337.523438 37.125 340.4375 37.269531 343.480469 37.304688 C 350.132812 37.375 356.785156 37.089844 363.4375 36.914062 C 363.828125 36.914062 364.183594 36.398438 364.59375 36.292969 C 365.640625 35.992188 366.816406 35.953125 367.757812 35.492188 C 368.574219 35.085938 369.359375 34.320312 369.820312 33.523438 C 370.195312 32.882812 370.035156 31.960938 370.105469 31.160156 C 370.566406 33.007812 371.03125 34.855469 371.636719 37.269531 C 374.035156 36.578125 376.988281 35.742188 379.960938 34.890625 C 379.851562 35.136719 379.65625 35.617188 379.265625 36.539062 C 383.605469 34.464844 387.660156 31.179688 391.875 36.1875 C 392.480469 35.476562 393.136719 34.695312 393.851562 33.859375 C 394.292969 34.535156 394.648438 35.050781 395.273438 35.992188 C 397.175781 31.179688 399.203125 35.121094 401.230469 35.386719 C 401.175781 34.765625 401.125 34.125 401.070312 33.699219 C 403.402344 33.328125 405.535156 32.972656 407.6875 32.617188 C 407.777344 32.210938 407.863281 31.800781 407.953125 31.410156 C 407.171875 31.039062 406.371094 30.308594 405.605469 30.363281 C 402.476562 30.539062 399.398438 31.039062 396.304688 31.570312 C 391.929688 32.332031 387.269531 31.570312 382.734375 31.480469 C 378.519531 31.390625 374.304688 31.285156 370.105469 31.195312 Z M 418.304688 32.671875 C 419.425781 32.832031 420.261719 33.0625 421.117188 33.0625 C 422.554688 33.0625 423.996094 32.8125 425.417969 32.867188 C 429.171875 32.972656 432.925781 33.257812 436.695312 33.34375 C 439.152344 33.398438 441.621094 33.113281 444.078125 33.167969 C 447.226562 33.257812 450.65625 34.625 452.222656 31.089844 C 453.523438 31.890625 454.640625 32.582031 455.746094 33.257812 C 455.941406 32.953125 456.117188 32.652344 456.3125 32.351562 C 455.90625 32.066406 455.496094 31.765625 454.589844 31.125 C 456.882812 31.445312 459.105469 31.089844 460.101562 32.03125 C 462.238281 34.054688 463.320312 33.46875 464.371094 32.28125 C 466.148438 32.671875 467.945312 33.042969 470.042969 33.503906 C 469.636719 32.441406 469.421875 31.890625 468.886719 30.46875 C 470.402344 31.585938 471.058594 32.421875 471.804688 32.527344 C 472.570312 32.617188 473.425781 31.976562 474.1875 31.695312 C 474.597656 32.15625 475.183594 32.8125 475.613281 33.292969 C 480.128906 30.683594 484.398438 32.136719 488.753906 32.902344 C 490.105469 30.183594 492.578125 30.859375 494.960938 31.144531 C 497.878906 31.480469 500.8125 32.015625 503.75 32.015625 C 505.617188 32.015625 507.699219 32.015625 509.371094 30.683594 C 509.601562 30.488281 510.402344 30.648438 510.667969 30.894531 C 512.125 32.296875 516.269531 32.9375 517.960938 32.457031 C 519.667969 31.976562 521.550781 32.050781 523.347656 32.03125 C 524.078125 32.03125 524.808594 32.617188 525.554688 32.671875 C 529.664062 32.953125 533.789062 33.523438 537.863281 33.273438 C 543.089844 32.9375 548.375 34.570312 553.636719 32.261719 C 555.914062 31.269531 558.972656 32.050781 561.660156 32.101562 C 562.140625 32.101562 562.621094 32.582031 563.101562 32.832031 C 563.9375 33.238281 564.808594 34.054688 565.589844 33.964844 C 569.734375 33.523438 568.1875 30.699219 567.972656 28.425781 C 564.789062 28.425781 561.820312 28.375 558.851562 28.425781 C 554.847656 28.515625 550.847656 28.890625 546.863281 28.746094 C 542.21875 28.570312 537.542969 27.34375 532.972656 27.71875 C 528.277344 28.089844 523.457031 26.085938 518.902344 28.425781 C 513.636719 25.621094 508.125 30.148438 502.644531 27.71875 C 500.40625 26.722656 497.363281 27.398438 494.695312 27.503906 C 492.046875 27.609375 489.414062 28.160156 486.78125 28.144531 C 480.949219 28.089844 475.132812 27.609375 469.296875 27.664062 C 464.976562 27.71875 460.671875 28.640625 456.347656 28.621094 C 451.441406 28.621094 446.53125 27.609375 441.640625 27.699219 C 434.703125 27.824219 427.785156 28.515625 420.847656 29.011719 C 416.847656 29.316406 412.84375 29.722656 408.96875 30.078125 C 408.753906 31.871094 408.59375 33.167969 408.433594 34.375 C 410.90625 36.683594 413.449219 28.179688 415.816406 34.941406 C 416.898438 33.949219 417.789062 33.132812 418.289062 32.671875 Z M 602.78125 31.410156 C 602.691406 30.964844 602.585938 30.523438 602.496094 30.0625 C 592.980469 29.652344 583.464844 29.246094 573.914062 28.835938 C 573.984375 29.6875 574.019531 30.203125 574.058594 30.71875 C 573.148438 30.292969 572.261719 29.867188 570.945312 29.246094 L 570.945312 33.238281 C 571.90625 33.027344 572.847656 32.671875 573.808594 32.617188 C 574.75 32.546875 575.746094 32.652344 576.671875 32.882812 C 577.773438 33.167969 578.804688 33.824219 579.925781 34.003906 C 580.671875 34.109375 581.507812 33.453125 582.292969 33.46875 C 587.074219 33.628906 591.859375 34.160156 596.625 33.949219 C 598.707031 33.859375 600.71875 32.296875 602.761719 31.410156 Z M 295.136719 36.097656 C 307.625 36.96875 311.394531 36.613281 314.878906 34.304688 C 312.265625 32.40625 302.734375 32.15625 300.722656 34.019531 C 299.105469 33.257812 297.46875 32.476562 295.351562 31.480469 C 295.261719 33.417969 295.210938 34.746094 295.136719 36.097656 Z M 96.894531 33.984375 C 96.808594 34.125 96.71875 34.285156 96.648438 34.429688 L 102.535156 36.859375 C 102.5 36.613281 102.464844 36.382812 102.425781 36.132812 C 104.472656 35.707031 106.519531 35.296875 108.546875 34.871094 C 108.546875 34.570312 108.546875 34.285156 108.527344 33.984375 Z M 264.902344 35.386719 C 263.710938 34.304688 262.980469 33.398438 262.039062 32.902344 C 261.308594 32.511719 259.957031 32.191406 259.53125 32.5625 C 258.90625 33.113281 258.871094 34.320312 258.605469 35.246094 C 259.460938 35.457031 260.3125 35.8125 261.183594 35.832031 C 262.234375 35.847656 263.285156 35.601562 264.902344 35.386719 Z M 277.9375 37.710938 C 279.664062 36.453125 280.980469 35.476562 282.988281 34.003906 C 280.800781 33.71875 279.128906 33.503906 277.457031 33.273438 C 277.617188 34.765625 277.796875 36.238281 277.957031 37.710938 Z M 277.9375 37.710938 " fill-opacity="1" fill-rule="nonzero"/></g><path fill="#ef94e9" d="M 53.089844 36.0625 C 52.945312 31.625 49.070312 33.34375 47.167969 33.0625 C 42.523438 32.386719 37.652344 34.855469 32.957031 32.316406 C 32.367188 31.996094 31.25 32.847656 30.414062 32.757812 C 29.417969 32.671875 28.4375 32.15625 27.460938 31.820312 L 27.550781 30.824219 C 32.636719 30.824219 37.757812 30.503906 42.808594 30.914062 C 48.429688 31.355469 54.421875 29.191406 59.722656 32.351562 C 59.6875 32.6875 59.652344 33.027344 59.617188 33.378906 C 58 33.238281 56.378906 33.097656 54.335938 32.917969 C 54.015625 33.71875 53.535156 34.890625 53.070312 36.0625 Z M 53.089844 36.0625 " fill-opacity="1" fill-rule="nonzero"/></svg>