<svg xmlns="http://www.w3.org/2000/svg" xmlns:xlink="http://www.w3.org/1999/xlink" width="1920" zoomAndPan="magnify" viewBox="0 0 1440 809.999993" height="1080" preserveAspectRatio="xMidYMid meet" version="1.0"><defs><filter x="0%" y="0%" width="100%" height="100%" id="7b68d7e80a"><feColorMatrix values="0 0 0 0 1 0 0 0 0 1 0 0 0 0 1 0 0 0 1 0" color-interpolation-filters="sRGB"/></filter><mask id="d2d9f1b91f"><g filter="url(#7b68d7e80a)"><rect x="-144" width="1728" fill="#000000" y="-80.999999" height="971.999992" fill-opacity="0.3098"/></g></mask><clipPath id="4a08e9cda6"><path d="M 1 140 L 990 140 L 990 617 L 1 617 Z M 1 140 " clip-rule="nonzero"/></clipPath><clipPath id="cc8d286dbb"><path d="M 1 140 L 852 140 L 852 617 L 1 617 Z M 1 140 " clip-rule="nonzero"/></clipPath><clipPath id="b9dc9e7f1e"><path d="M 338 140 L 1091 140 L 1091 617 L 338 617 Z M 338 140 " clip-rule="nonzero"/></clipPath><clipPath id="233286d28c"><path d="M 1 1 L 1438.558594 1 L 1438.558594 115 L 1 115 Z M 1 1 " clip-rule="nonzero"/></clipPath><clipPath id="c67040df08"><path d="M 1347 140 L 1438.558594 140 L 1438.558594 259 L 1347 259 Z M 1347 140 " clip-rule="nonzero"/></clipPath><clipPath id="bcb9750570"><path d="M 908 140 L 1349 140 L 1349 617 L 908 617 Z M 908 140 " clip-rule="nonzero"/></clipPath><clipPath id="00de0c2a4d"><path d="M 1227 140 L 1438.558594 140 L 1438.558594 617 L 1227 617 Z M 1227 140 " clip-rule="nonzero"/></clipPath><clipPath id="51e6d80db3"><rect x="0" width="1439" y="0" height="617"/></clipPath></defs><g mask="url(#d2d9f1b91f)"><g transform="matrix(1, 0, 0, 1, 0, 193)"><g clip-path="url(#51e6d80db3)"><g clip-path="url(#4a08e9cda6)"><path fill="#5ce1e6" d="M 479.542969 750.605469 C 522.039062 702.324219 561.996094 622.664062 635.984375 543.007812 C 705.289062 468.394531 737.472656 424.253906 785.660156 367.28125 C 847.457031 294.230469 930.226562 207.5 989.503906 140.851562 L 910.128906 140.851562 C 862.859375 178.167969 728.441406 284.691406 697.546875 313.207031 C 659.886719 347.964844 440.402344 519.164062 381.046875 568.113281 C 252.953125 673.742188 1.65625 857.671875 1.496094 857.785156 L 1.496094 1127.390625 L 198.53125 1127.390625 C 198.53125 1127.390625 262.628906 1039.609375 302.824219 991.03125 C 367.769531 912.5625 415.777344 823.070312 479.542969 750.605469 " fill-opacity="1" fill-rule="nonzero"/></g><g clip-path="url(#cc8d286dbb)"><path fill="#5ce1e6" d="M 1.496094 483.136719 L 1.496094 718.742188 C 1.65625 718.652344 253.585938 566.179688 272.890625 558.453125 C 292.199219 550.734375 464.074219 415.550781 464.074219 415.550781 C 464.074219 415.550781 556.804688 338.3125 599.773438 324.792969 C 642.742188 311.269531 674.609375 261.066406 720.011719 232.097656 C 753.667969 210.621094 819.644531 163.699219 851.542969 140.851562 L 740.007812 140.851562 C 557.074219 205.304688 410.59375 300.828125 363.664062 317.0625 C 313.460938 334.445312 1.65625 483.070312 1.496094 483.136719 " fill-opacity="1" fill-rule="nonzero"/></g><path fill="#5ce1e6" d="M 1.496094 261.066406 L 1.519531 408.796875 C 1.519531 408.796875 294.132812 287.136719 349.175781 268.410156 C 404.222656 249.671875 479.542969 207.476562 496.925781 200.234375 C 509.351562 195.050781 598.789062 160.269531 648.761719 140.851562 L 462.34375 140.851562 C 314.332031 176.585938 1.65625 261.019531 1.496094 261.066406 " fill-opacity="1" fill-rule="nonzero"/><path fill="#5ce1e6" d="M 1.519531 201.683594 C 59.597656 183.816406 188.199219 158.324219 282.375 140.851562 L 1.496094 140.851562 L 1.519531 201.683594 " fill-opacity="1" fill-rule="nonzero"/><g clip-path="url(#b9dc9e7f1e)"><path fill="#5ce1e6" d="M 837.839844 975.960938 C 849.914062 877.234375 909.101562 639.558594 943.796875 562.320312 C 984.242188 472.296875 1006.59375 399.109375 1029.351562 339.253906 C 1060.574219 257.207031 1069.851562 203.980469 1090.730469 140.851562 L 1032.460938 140.851562 C 985.554688 233.941406 894.695312 295.769531 876.441406 336.378906 C 857.339844 378.867188 728.691406 510.90625 705.515625 559.425781 C 685.246094 601.855469 578.9375 736.449219 565.4375 757.847656 C 498.816406 863.375 436.203125 956.894531 415.808594 992.957031 C 366.402344 1080.332031 338.6875 1127.390625 338.6875 1127.390625 L 792.425781 1127.390625 C 792.425781 1127.390625 807.011719 1064.613281 827.007812 1016.378906 C 832.375 1003.421875 836.140625 989.878906 837.839844 975.960938 " fill-opacity="1" fill-rule="nonzero"/></g><g clip-path="url(#233286d28c)"><path fill="#5ce1e6" d="M 1424.945312 90.375 C 1399.8125 78.925781 1370.546875 68.414062 1284.925781 19.6875 C 1222.140625 -16.066406 1132.308594 7.636719 1099.015625 29.828125 C 1071.902344 47.863281 985.578125 71.828125 910.253906 67.9375 C 874.992188 66.148438 819.449219 40.28125 778.890625 38.019531 C 738.332031 35.757812 634.628906 76.402344 609.5625 75.066406 C 572.75 73.097656 516.132812 65.683594 464.074219 50.679688 C 393.765625 30.371094 269.476562 -20.863281 163.765625 16.125 C 99.679688 38.550781 39.894531 66.828125 14.433594 79.34375 C 6.511719 83.234375 1.496094 91.304688 1.496094 100.128906 L 1.496094 114.78125 L 1438.46875 114.78125 L 1438.46875 111.457031 C 1438.46875 102.390625 1433.195312 94.144531 1424.945312 90.375 " fill-opacity="1" fill-rule="nonzero"/></g><g clip-path="url(#c67040df08)"><path fill="#5ce1e6" d="M 1438.421875 140.851562 L 1347.359375 140.851562 C 1381.570312 177.492188 1414.875 234.902344 1438.46875 258.496094 L 1438.421875 140.851562 " fill-opacity="1" fill-rule="nonzero"/></g><g clip-path="url(#bcb9750570)"><path fill="#5ce1e6" d="M 1255.953125 585.496094 C 1241.175781 517.613281 1234.804688 422.226562 1208.152344 311.757812 C 1202.992188 290.347656 1192.230469 179.199219 1188.609375 140.851562 L 1130.035156 140.851562 C 1104.921875 234.042969 1087.746094 296.921875 1077.785156 337.828125 C 1050.285156 450.855469 956.277344 691.824219 943.796875 879.882812 C 935.648438 1002.574219 908.308594 1127.390625 908.308594 1127.390625 L 1348.660156 1127.390625 C 1334.355469 1065.824219 1305.203125 979.445312 1300.902344 863.949219 C 1295.246094 712.460938 1270.960938 654.394531 1255.953125 585.496094 " fill-opacity="1" fill-rule="nonzero"/></g><g clip-path="url(#00de0c2a4d)"><path fill="#5ce1e6" d="M 1293.695312 140.851562 L 1227.550781 140.851562 C 1237.066406 190.457031 1270.992188 366.953125 1280.105469 408.988281 C 1290.71875 458.039062 1326.457031 631.46875 1339.96875 682.046875 C 1353.480469 732.636719 1376.65625 851.992188 1390.191406 888.675781 C 1403.703125 925.371094 1438.46875 1031.097656 1438.46875 1031.097656 L 1438.46875 375.789062 C 1438.46875 375.789062 1417.632812 351.65625 1399.933594 323.886719 C 1344.097656 236.273438 1342.988281 202.972656 1293.695312 140.851562 " fill-opacity="1" fill-rule="nonzero"/></g></g></g></g></svg>