<svg xmlns="http://www.w3.org/2000/svg" xmlns:xlink="http://www.w3.org/1999/xlink" width="800" zoomAndPan="magnify" viewBox="0 0 600 449.999984" height="600" preserveAspectRatio="xMidYMid meet" version="1.0"><defs><g/><clipPath id="9279db8768"><path d="M 480.558594 308.429688 L 566.808594 308.429688 L 566.808594 394.679688 L 480.558594 394.679688 Z M 480.558594 308.429688 " clip-rule="nonzero"/></clipPath></defs><g fill="#ffffff" fill-opacity="1"><g transform="translate(12.358416, 393.790018)"><g><path d="M 438.9375 -338.917969 L 337.007812 -338.917969 L 228.707031 -110.210938 L 119.769531 -338.917969 L 16.5625 -338.917969 L 16.5625 -312.800781 L 64.34375 -310.25 L 64.34375 -29.304688 L 16.5625 -26.757812 L 16.5625 0 L 149.074219 0 L 149.074219 -26.757812 L 101.929688 -29.304688 L 101.929688 -228.070312 C 101.929688 -251.003906 101.292969 -279.671875 98.746094 -303.242188 C 103.203125 -291.140625 109.574219 -277.125 115.308594 -263.746094 L 210.230469 -66.253906 L 243.359375 -66.253906 L 337.644531 -263.746094 C 343.378906 -277.125 349.75 -291.140625 354.207031 -303.242188 C 351.660156 -279.671875 351.023438 -251.003906 351.023438 -228.070312 L 351.023438 -29.304688 L 303.878906 -26.757812 L 303.878906 0 L 438.9375 0 L 438.9375 -26.757812 L 390.519531 -29.304688 L 390.519531 -310.25 L 438.9375 -312.800781 Z M 438.9375 -338.917969 "/></g></g></g><g fill="#ffffff" fill-opacity="1"><g transform="translate(467.854478, 393.790018)"><g/></g></g><path fill="#d9d9d9" d="M 523.683594 311.878906 C 501.828125 311.878906 484.011719 329.683594 484.011719 351.554688 C 484.011719 373.425781 501.8125 391.230469 523.683594 391.230469 C 545.558594 391.230469 563.359375 373.425781 563.359375 351.554688 C 563.359375 329.683594 545.542969 311.878906 523.683594 311.878906 Z M 523.683594 311.878906 " fill-opacity="1" fill-rule="nonzero"/><path fill="#ffffff" d="M 523.683594 309.722656 C 500.621094 309.722656 481.855469 328.507812 481.855469 351.554688 C 481.855469 374.617188 500.621094 393.386719 523.683594 393.386719 C 546.730469 393.386719 565.515625 374.617188 565.515625 351.554688 C 565.515625 328.507812 546.730469 309.722656 523.683594 309.722656 Z M 523.683594 390.125 C 502.417969 390.125 485.113281 372.824219 485.113281 351.554688 C 485.113281 330.285156 502.417969 312.984375 523.683594 312.984375 C 544.953125 312.984375 562.257812 330.285156 562.257812 351.554688 C 562.257812 372.824219 544.953125 390.125 523.683594 390.125 Z M 523.683594 390.125 " fill-opacity="1" fill-rule="nonzero"/><g clip-path="url(#9279db8768)"><path fill="#ffffff" d="M 523.683594 394.679688 C 499.914062 394.679688 480.558594 375.324219 480.558594 351.554688 C 480.558594 327.785156 499.914062 308.429688 523.683594 308.429688 C 547.457031 308.429688 566.808594 327.785156 566.808594 351.554688 C 566.808594 375.324219 547.457031 394.679688 523.683594 394.679688 Z M 523.683594 311.015625 C 501.328125 311.015625 483.148438 329.199219 483.148438 351.554688 C 483.148438 373.910156 501.328125 392.09375 523.683594 392.09375 C 546.042969 392.09375 564.222656 373.910156 564.222656 351.554688 C 564.222656 329.199219 546.042969 311.015625 523.683594 311.015625 Z M 523.683594 311.015625 " fill-opacity="1" fill-rule="nonzero"/></g></svg>